<svg xmlns="http://www.w3.org/2000/svg" xmlns:xlink="http://www.w3.org/1999/xlink" width="600" zoomAndPan="magnify" viewBox="0 0 450 449.999984" height="600" preserveAspectRatio="xMidYMid meet" version="1.0"><defs><clipPath id="1edd1b95ab"><path d="M 0 59.605469 L 450 59.605469 L 450 342 L 0 342 Z M 0 59.605469 " clip-rule="nonzero"/></clipPath><clipPath id="91eee76314"><path d="M 110 110 L 346 110 L 346 346.105469 L 110 346.105469 Z M 110 110 " clip-rule="nonzero"/></clipPath></defs><path fill="#b49d85" d="M 194.234375 266.605469 C 183.753906 257.238281 177.160156 243.609375 177.160156 228.441406 C 177.160156 227.15625 177.203125 225.878906 177.300781 224.617188 C 177.402344 224.476562 177.515625 224.339844 177.617188 224.207031 C 178.015625 223.691406 178.417969 223.183594 178.824219 222.6875 C 178.984375 222.492188 179.148438 222.28125 179.320312 222.085938 C 179.683594 221.632812 180.0625 221.1875 180.441406 220.746094 C 180.667969 220.488281 180.878906 220.222656 181.105469 219.96875 C 181.433594 219.597656 181.769531 219.21875 182.105469 218.851562 C 182.453125 218.460938 182.808594 218.074219 183.164062 217.695312 C 183.371094 217.46875 183.582031 217.246094 183.789062 217.023438 C 190.289062 210.203125 196.867188 205.5 203.179688 202.3125 C 198.050781 208.445312 195.019531 214.730469 193.289062 219.40625 C 187.976562 233.734375 188.304688 249.566406 194.234375 266.605469 " fill-opacity="1" fill-rule="nonzero"/><path fill="#b49d85" d="M 178.867188 217.253906 C 178.652344 217.5 178.441406 217.742188 178.226562 217.988281 C 181.488281 202.238281 191.996094 189.136719 206.101562 182.328125 C 206.320312 182.355469 206.539062 182.382812 206.75 182.414062 C 207.019531 182.453125 207.285156 182.492188 207.554688 182.53125 C 220.617188 184.488281 230.601562 188.570312 238.234375 193.582031 C 235.007812 193.023438 231.714844 192.742188 228.367188 192.742188 C 222.957031 192.742188 216.652344 193.496094 209.890625 195.746094 L 209.839844 195.765625 C 209.636719 195.828125 209.4375 195.898438 209.242188 195.972656 L 209.058594 196.027344 C 198.128906 199.847656 188.097656 206.871094 179.121094 216.972656 L 178.867188 217.253906 " fill-opacity="1" fill-rule="nonzero"/><path fill="#b49d85" d="M 244.367188 277.03125 C 239.316406 278.710938 233.914062 279.613281 228.300781 279.613281 C 217.632812 279.613281 207.730469 276.347656 199.535156 270.753906 C 199.4375 270.527344 199.347656 270.308594 199.261719 270.09375 C 199.117188 269.738281 198.976562 269.378906 198.847656 269.023438 C 194.097656 256.859375 192.667969 246.273438 193.1875 237.222656 C 195.921875 244.699219 199.828125 250.429688 202.996094 254.253906 C 212.746094 266.03125 226.632812 273.664062 244.367188 277.03125 " fill-opacity="1" fill-rule="nonzero"/><path fill="#b49d85" d="M 212.324219 179.816406 C 217.351562 178.152344 222.71875 177.261719 228.300781 177.261719 C 238.976562 177.261719 248.890625 180.539062 257.09375 186.140625 C 257.167969 186.320312 257.242188 186.496094 257.308594 186.671875 C 257.464844 187.042969 257.601562 187.40625 257.742188 187.769531 C 258.402344 189.453125 259 191.105469 259.53125 192.722656 L 259.582031 192.863281 C 262.871094 202.933594 263.859375 211.839844 263.414062 219.609375 C 260.675781 212.132812 256.773438 206.402344 253.609375 202.578125 C 243.871094 190.816406 230.011719 183.191406 212.324219 179.816406 " fill-opacity="1" fill-rule="nonzero"/><path fill="#b49d85" d="M 277.691406 239.621094 C 277.929688 239.363281 278.15625 239.097656 278.386719 238.832031 C 275.140625 254.582031 264.652344 267.695312 250.566406 274.519531 C 250.347656 274.488281 250.132812 274.460938 249.917969 274.429688 C 249.53125 274.375 249.144531 274.3125 248.761719 274.257812 C 246.976562 273.984375 245.246094 273.675781 243.570312 273.332031 L 243.4375 273.296875 C 233.070312 271.121094 224.859375 267.515625 218.363281 263.25 C 221.585938 263.808594 224.882812 264.089844 228.230469 264.089844 C 233.648438 264.089844 239.964844 263.328125 246.734375 261.074219 L 246.816406 261.050781 C 247.015625 260.984375 247.21875 260.910156 247.425781 260.84375 L 247.488281 260.820312 C 258.457031 257 268.53125 249.957031 277.535156 239.796875 L 277.691406 239.621094 " fill-opacity="1" fill-rule="nonzero"/><path fill="#b49d85" d="M 279.441406 228.441406 C 279.441406 229.703125 279.394531 230.964844 279.304688 232.210938 C 279.1875 232.367188 279.066406 232.515625 278.949219 232.667969 C 278.570312 233.152344 278.1875 233.632812 277.800781 234.105469 C 277.613281 234.347656 277.421875 234.585938 277.226562 234.816406 C 276.886719 235.238281 276.535156 235.652344 276.183594 236.054688 C 275.921875 236.367188 275.65625 236.671875 275.394531 236.976562 C 275.105469 237.304688 274.8125 237.628906 274.53125 237.953125 C 274.097656 238.4375 273.660156 238.90625 273.222656 239.367188 C 273.097656 239.507812 272.96875 239.644531 272.839844 239.78125 C 266.328125 246.609375 259.75 251.328125 253.417969 254.519531 C 258.554688 248.386719 261.582031 242.105469 263.3125 237.425781 C 268.617188 223.117188 268.296875 207.304688 262.386719 190.292969 C 272.855469 199.65625 279.441406 213.277344 279.441406 228.441406 " fill-opacity="1" fill-rule="nonzero"/><g clip-path="url(#1edd1b95ab)"><path fill="#b49d85" d="M 444.777344 341.496094 C 444.777344 341.496094 444.664062 337.878906 444.46875 331.109375 C 444.28125 324.335938 443.921875 314.40625 443.632812 301.765625 C 443.339844 289.125 442.984375 273.777344 442.578125 256.171875 C 442.207031 238.566406 441.789062 218.699219 441.472656 197.035156 C 441.117188 175.367188 440.730469 151.890625 440.480469 127.058594 L 440.453125 124.730469 L 440.441406 123.5625 L 440.386719 122.613281 L 440.3125 121.441406 C 440.285156 121.046875 440.210938 120.859375 440.160156 120.554688 L 440.023438 119.730469 C 439.972656 119.449219 439.863281 119.128906 439.789062 118.828125 C 439.132812 116.378906 437.960938 114.0625 436.359375 112.066406 C 433.1875 108.027344 428.222656 105.472656 423.058594 105.257812 L 422.082031 105.21875 L 420.8125 105.199219 L 418.34375 105.171875 C 416.699219 105.144531 415.058594 105.121094 413.402344 105.097656 C 410.101562 105.027344 406.789062 104.945312 403.457031 104.875 C 396.792969 104.691406 390.0625 104.484375 383.277344 104.214844 C 369.703125 103.667969 355.90625 102.988281 341.882812 101.804688 C 334.863281 101.167969 327.8125 100.484375 320.597656 99.328125 C 316.9375 98.625 313.347656 98.117188 309.324219 96.535156 C 305.664062 95.164062 302.269531 93.519531 298.917969 91.652344 C 295.574219 89.761719 292.320312 87.628906 289.152344 84.796875 C 287.597656 83.335938 285.957031 81.609375 284.621094 79.265625 L 282.117188 74.617188 C 281.351562 73.238281 280.585938 72.207031 280.003906 71.65625 C 279.382812 71.175781 279.226562 71.0625 278.542969 71.007812 L 278.277344 70.988281 C 278.199219 70.972656 277.871094 70.984375 277.679688 70.984375 L 276.335938 70.984375 L 273.644531 70.996094 L 268.25 71.007812 C 253.871094 71.035156 239.4375 71.074219 225.003906 71.101562 C 210.566406 71.074219 196.128906 71.039062 181.75 71.011719 L 173.664062 70.996094 L 172.316406 70.988281 L 171.980469 70.988281 C 171.554688 70.996094 172.175781 70.972656 171.992188 70.984375 L 171.320312 71.023438 C 170.875 71.066406 170.582031 71.179688 170 71.660156 C 169.421875 72.214844 168.652344 73.246094 167.886719 74.621094 L 165.363281 79.292969 C 164.371094 81.152344 162.316406 83.488281 160.851562 84.796875 C 157.679688 87.636719 154.429688 89.765625 151.089844 91.652344 C 147.726562 93.523438 144.335938 95.171875 140.683594 96.542969 C 138.882812 97.222656 136.90625 97.863281 134.78125 98.289062 C 133.03125 98.632812 131.351562 99 129.566406 99.3125 L 124.046875 100.128906 C 122.210938 100.394531 120.476562 100.550781 118.691406 100.773438 C 115.140625 101.210938 111.628906 101.476562 108.117188 101.820312 C 94.097656 103 80.296875 103.675781 66.722656 104.226562 C 59.9375 104.496094 53.210938 104.703125 46.546875 104.882812 C 43.214844 104.964844 39.894531 105.042969 36.59375 105.121094 C 34.945312 105.144531 33.300781 105.167969 31.652344 105.1875 L 29.191406 105.21875 L 28.101562 105.234375 L 26.886719 105.28125 C 25.953125 105.28125 25.515625 105.414062 24.945312 105.484375 C 24.421875 105.511719 23.75 105.738281 23.136719 105.867188 C 21.890625 106.1875 20.699219 106.679688 19.546875 107.238281 C 17.257812 108.394531 15.25 110.085938 13.648438 112.078125 C 12.046875 114.066406 10.882812 116.386719 10.226562 118.828125 C 10.035156 119.4375 9.929688 120.058594 9.832031 120.683594 C 9.699219 121.304688 9.667969 121.941406 9.628906 122.574219 C 9.613281 122.90625 9.578125 123.171875 9.574219 123.5625 L 9.554688 124.730469 L 9.527344 127.058594 C 9.375 139.472656 9.230469 151.550781 9.082031 163.234375 C 8.898438 174.914062 8.710938 186.199219 8.535156 197.035156 C 8.21875 218.699219 7.804688 238.566406 7.429688 256.171875 C 7.019531 273.777344 6.664062 289.125 6.371094 301.765625 C 6.085938 314.40625 5.722656 324.335938 5.539062 331.109375 C 5.335938 337.878906 5.222656 341.496094 5.222656 341.496094 C 5.222656 341.496094 5.113281 337.878906 4.910156 331.109375 C 4.726562 324.335938 4.363281 314.40625 4.078125 301.765625 C 3.777344 289.125 3.421875 273.777344 3.015625 256.171875 C 2.640625 238.566406 2.222656 218.699219 1.90625 197.035156 C 1.730469 186.199219 1.550781 174.914062 1.359375 163.234375 C 1.21875 151.550781 1.066406 139.472656 0.914062 127.058594 L 0.886719 124.730469 L 0.871094 123.5625 C 0.863281 123.171875 0.898438 122.652344 0.914062 122.207031 C 0.941406 121.28125 0.976562 120.351562 1.140625 119.425781 C 1.257812 118.5 1.40625 117.578125 1.660156 116.667969 C 2.539062 113.019531 4.195312 109.527344 6.507812 106.496094 C 11.105469 100.394531 18.414062 96.300781 26.398438 95.773438 C 32.9375 95.519531 39.546875 95.261719 46.214844 95.003906 C 52.832031 94.726562 59.519531 94.425781 66.253906 94.066406 C 79.714844 93.332031 93.402344 92.464844 107.125 91.109375 C 110.535156 90.726562 113.996094 90.421875 117.382812 89.949219 C 119.074219 89.714844 120.832031 89.523438 122.472656 89.265625 L 127.378906 88.476562 C 129.058594 88.175781 130.824219 87.789062 132.535156 87.441406 C 133.867188 87.167969 135.277344 86.726562 136.777344 86.144531 C 139.746094 85.023438 142.75 83.550781 145.585938 81.949219 C 148.421875 80.347656 151.128906 78.492188 153.269531 76.554688 C 154.390625 75.421875 154.78125 75.105469 155.550781 73.84375 C 156.335938 72.425781 157.121094 70.824219 158.101562 69.070312 C 159.09375 67.328125 160.308594 65.332031 162.324219 63.394531 C 164.371094 61.457031 167.476562 59.886719 170.625 59.734375 L 171.304688 59.695312 L 171.980469 59.671875 L 173.664062 59.671875 L 176.359375 59.667969 L 181.75 59.652344 C 196.128906 59.621094 210.566406 59.589844 225.003906 59.5625 C 239.4375 59.59375 253.871094 59.628906 268.25 59.664062 L 273.644531 59.671875 L 276.335938 59.679688 L 277.679688 59.683594 C 277.933594 59.683594 278.058594 59.671875 278.425781 59.691406 L 279.507812 59.753906 C 280.949219 59.859375 282.511719 60.242188 283.9375 60.898438 C 285.398438 61.53125 286.617188 62.460938 287.671875 63.402344 C 289.683594 65.332031 290.90625 67.332031 291.886719 69.070312 C 292.378906 69.945312 292.828125 70.796875 293.238281 71.585938 L 294.457031 73.871094 C 294.890625 74.644531 295.691406 75.582031 296.730469 76.554688 C 298.867188 78.496094 301.570312 80.351562 304.414062 81.953125 C 307.25 83.558594 310.253906 85.027344 313.21875 86.152344 C 315.777344 87.25 319.226562 87.796875 322.460938 88.464844 C 329.144531 89.632812 336.03125 90.410156 342.871094 91.121094 C 356.59375 92.476562 370.28125 93.34375 383.742188 94.078125 C 390.480469 94.4375 397.160156 94.742188 403.785156 95.011719 C 410.476562 95.277344 417.097656 95.539062 423.65625 95.796875 C 427.574219 96.074219 431.40625 97.203125 434.804688 99.058594 C 438.222656 100.890625 441.167969 103.484375 443.476562 106.507812 C 445.792969 109.53125 447.445312 113.023438 448.324219 116.675781 C 448.429688 117.136719 448.558594 117.570312 448.640625 118.054688 L 448.859375 119.554688 C 448.914062 120.035156 449.011719 120.613281 449.023438 121 L 449.066406 122.175781 L 449.09375 122.761719 L 449.105469 123.046875 L 449.105469 123.5625 L 449.09375 124.730469 L 449.066406 127.058594 C 448.820312 151.890625 448.4375 175.367188 448.074219 197.035156 C 447.765625 218.699219 447.34375 238.566406 446.96875 256.171875 C 446.5625 273.777344 446.210938 289.125 445.921875 301.765625 C 445.628906 314.40625 445.273438 324.335938 445.085938 331.109375 C 444.882812 337.878906 444.777344 341.496094 444.777344 341.496094 " fill-opacity="1" fill-rule="nonzero"/></g><path fill="#b49d85" d="M 228.304688 113.023438 C 164.703125 113.023438 112.964844 164.800781 112.964844 228.441406 C 112.964844 292.074219 164.703125 343.847656 228.304688 343.847656 C 291.898438 343.847656 343.636719 292.074219 343.636719 228.441406 C 343.636719 164.800781 291.898438 113.023438 228.304688 113.023438 Z M 228.304688 335.578125 C 169.269531 335.578125 121.234375 287.511719 121.234375 228.441406 C 121.234375 169.363281 169.269531 121.300781 228.304688 121.300781 C 287.335938 121.300781 335.367188 169.363281 335.367188 228.441406 C 335.367188 287.511719 287.335938 335.578125 228.304688 335.578125 " fill-opacity="1" fill-rule="nonzero"/><g clip-path="url(#91eee76314)"><path fill="#b49d85" d="M 220.933594 111.089844 C 219.738281 111.164062 218.828125 112.191406 218.902344 113.386719 C 218.976562 114.574219 220.007812 115.484375 221.195312 115.410156 C 222.390625 115.335938 223.300781 114.3125 223.226562 113.113281 C 223.148438 111.917969 222.121094 111.015625 220.933594 111.089844 Z M 213.585938 111.777344 C 212.398438 111.925781 211.558594 113.007812 211.710938 114.199219 C 211.855469 115.382812 212.9375 116.222656 214.121094 116.074219 C 215.3125 115.925781 216.152344 114.839844 216.003906 113.65625 C 215.851562 112.472656 214.769531 111.625 213.585938 111.777344 Z M 206.296875 112.929688 C 205.125 113.148438 204.351562 114.28125 204.574219 115.460938 C 204.796875 116.632812 205.933594 117.40625 207.105469 117.183594 C 208.28125 116.957031 209.054688 115.828125 208.828125 114.648438 C 208.605469 113.476562 207.472656 112.703125 206.296875 112.929688 Z M 199.09375 114.535156 C 197.9375 114.828125 197.238281 116.015625 197.539062 117.171875 C 197.835938 118.332031 199.015625 119.027344 200.171875 118.734375 C 201.332031 118.433594 202.03125 117.253906 201.730469 116.09375 C 201.433594 114.9375 200.253906 114.238281 199.09375 114.535156 Z M 192.007812 116.59375 C 190.875 116.96875 190.25 118.191406 190.621094 119.324219 C 190.992188 120.464844 192.214844 121.085938 193.351562 120.71875 C 194.488281 120.347656 195.109375 119.121094 194.742188 117.988281 C 194.371094 116.847656 193.148438 116.226562 192.007812 116.59375 Z M 185.058594 119.105469 C 183.945312 119.550781 183.40625 120.808594 183.84375 121.921875 C 184.285156 123.03125 185.546875 123.574219 186.660156 123.132812 C 187.769531 122.691406 188.308594 121.433594 187.871094 120.316406 C 187.425781 119.207031 186.167969 118.664062 185.058594 119.105469 Z M 178.28125 122.050781 C 177.199219 122.5625 176.738281 123.855469 177.25 124.9375 C 177.757812 126.015625 179.046875 126.476562 180.128906 125.96875 C 181.214844 125.457031 181.675781 124.164062 181.164062 123.085938 C 180.65625 122.003906 179.363281 121.542969 178.28125 122.050781 Z M 171.707031 125.417969 C 170.660156 126 170.277344 127.3125 170.859375 128.363281 C 171.433594 129.40625 172.75 129.789062 173.800781 129.214844 L 173.800781 129.207031 C 174.84375 128.632812 175.226562 127.316406 174.644531 126.269531 C 174.070312 125.21875 172.75 124.84375 171.707031 125.417969 Z M 165.355469 129.191406 C 164.347656 129.835938 164.046875 131.171875 164.695312 132.179688 C 165.339844 133.191406 166.675781 133.484375 167.683594 132.839844 C 168.6875 132.203125 168.984375 130.859375 168.34375 129.851562 C 167.699219 128.839844 166.363281 128.546875 165.355469 129.191406 Z M 159.257812 133.347656 C 158.292969 134.054688 158.078125 135.40625 158.78125 136.378906 C 159.488281 137.34375 160.839844 137.554688 161.804688 136.851562 C 162.773438 136.144531 162.988281 134.792969 162.285156 133.828125 C 161.578125 132.859375 160.226562 132.644531 159.257812 133.347656 Z M 153.433594 137.882812 C 152.507812 138.644531 152.378906 140.015625 153.144531 140.933594 C 153.90625 141.855469 155.269531 141.984375 156.195312 141.21875 C 157.113281 140.457031 157.238281 139.089844 156.476562 138.171875 C 155.714844 137.246094 154.351562 137.121094 153.433594 137.882812 Z M 147.898438 142.769531 C 147.03125 143.585938 146.984375 144.957031 147.800781 145.832031 C 148.625 146.707031 149.996094 146.746094 150.863281 145.925781 C 151.738281 145.109375 151.777344 143.738281 150.957031 142.863281 C 150.140625 141.996094 148.769531 141.949219 147.898438 142.769531 Z M 142.683594 147.992188 C 141.867188 148.859375 141.90625 150.230469 142.777344 151.050781 C 143.648438 151.871094 145.015625 151.828125 145.839844 150.960938 C 146.65625 150.085938 146.613281 148.714844 145.742188 147.894531 C 144.871094 147.074219 143.5 147.117188 142.683594 147.992188 Z M 137.800781 153.527344 C 137.039062 154.445312 137.164062 155.808594 138.089844 156.578125 C 139.007812 157.339844 140.371094 157.210938 141.132812 156.289062 C 141.898438 155.363281 141.769531 154 140.851562 153.238281 C 139.925781 152.476562 138.5625 152.601562 137.800781 153.527344 Z M 133.273438 159.351562 C 132.570312 160.316406 132.785156 161.671875 133.75 162.375 C 134.71875 163.082031 136.070312 162.867188 136.777344 161.902344 C 137.480469 160.933594 137.265625 159.578125 136.300781 158.875 C 135.332031 158.167969 133.980469 158.382812 133.273438 159.351562 Z M 129.121094 165.445312 C 128.476562 166.453125 128.777344 167.792969 129.785156 168.433594 C 130.792969 169.082031 132.128906 168.785156 132.773438 167.773438 C 133.414062 166.765625 133.117188 165.429688 132.109375 164.785156 C 131.105469 164.140625 129.761719 164.441406 129.121094 165.445312 Z M 125.359375 171.789062 C 124.78125 172.835938 125.15625 174.152344 126.207031 174.734375 C 127.253906 175.308594 128.566406 174.933594 129.148438 173.882812 C 129.722656 172.835938 129.34375 171.519531 128.296875 170.9375 C 127.253906 170.363281 125.933594 170.742188 125.359375 171.789062 Z M 122 178.355469 C 121.488281 179.433594 121.949219 180.726562 123.03125 181.238281 C 124.113281 181.753906 125.40625 181.289062 125.914062 180.207031 C 126.425781 179.125 125.964844 177.832031 124.882812 177.324219 C 123.804688 176.8125 122.511719 177.273438 122 178.355469 Z M 119.0625 185.113281 C 118.625 186.230469 119.164062 187.488281 120.277344 187.929688 C 121.386719 188.367188 122.644531 187.828125 123.089844 186.714844 C 123.527344 185.605469 122.988281 184.347656 121.875 183.902344 C 120.761719 183.460938 119.503906 184.003906 119.0625 185.113281 Z M 116.554688 192.0625 C 116.183594 193.199219 116.804688 194.421875 117.941406 194.792969 C 119.082031 195.160156 120.296875 194.539062 120.671875 193.40625 C 121.042969 192.265625 120.421875 191.042969 119.285156 190.675781 C 118.148438 190.304688 116.925781 190.925781 116.554688 192.0625 Z M 114.492188 199.148438 C 114.191406 200.3125 114.890625 201.488281 116.046875 201.789062 C 117.203125 202.082031 118.386719 201.386719 118.6875 200.226562 C 118.980469 199.070312 118.285156 197.890625 117.125 197.589844 C 115.96875 197.292969 114.789062 197.992188 114.492188 199.148438 Z M 112.878906 206.351562 C 112.652344 207.53125 113.425781 208.664062 114.597656 208.882812 C 115.769531 209.109375 116.90625 208.34375 117.128906 207.164062 C 117.355469 205.992188 116.582031 204.855469 115.410156 204.632812 C 114.238281 204.40625 113.105469 205.179688 112.878906 206.351562 Z M 111.722656 213.644531 C 111.578125 214.832031 112.417969 215.917969 113.601562 216.066406 C 114.789062 216.21875 115.871094 215.378906 116.019531 214.1875 C 116.171875 213.003906 115.332031 211.917969 114.140625 211.765625 C 112.957031 211.621094 111.875 212.460938 111.722656 213.644531 Z M 111.035156 220.996094 C 110.957031 222.1875 111.863281 223.21875 113.058594 223.292969 C 114.25 223.363281 115.28125 222.460938 115.355469 221.265625 C 115.425781 220.070312 114.519531 219.042969 113.332031 218.96875 C 112.136719 218.890625 111.109375 219.800781 111.035156 220.996094 Z M 110.800781 228.375 C 110.800781 229.570312 111.769531 230.539062 112.964844 230.539062 C 114.160156 230.539062 115.128906 229.570312 115.128906 228.375 C 115.128906 227.179688 114.164062 226.207031 112.964844 226.207031 C 111.769531 226.207031 110.800781 227.179688 110.800781 228.375 Z M 111.023438 235.753906 C 111.097656 236.941406 112.125 237.851562 113.320312 237.777344 C 114.507812 237.703125 115.417969 236.675781 115.34375 235.480469 L 115.347656 235.480469 C 115.269531 234.292969 114.242188 233.378906 113.054688 233.457031 C 111.859375 233.53125 110.953125 234.554688 111.023438 235.753906 Z M 111.707031 243.101562 C 111.859375 244.285156 112.941406 245.128906 114.125 244.980469 C 115.316406 244.832031 116.15625 243.75 116.007812 242.558594 L 116.003906 242.558594 C 115.855469 241.375 114.773438 240.535156 113.589844 240.683594 C 112.402344 240.828125 111.558594 241.910156 111.710938 243.101562 Z M 112.855469 250.394531 C 113.078125 251.570312 114.210938 252.339844 115.382812 252.117188 C 116.5625 251.894531 117.332031 250.761719 117.109375 249.589844 C 116.886719 248.410156 115.753906 247.636719 114.578125 247.863281 C 113.402344 248.082031 112.632812 249.214844 112.855469 250.390625 Z M 114.457031 257.597656 C 114.757812 258.761719 115.933594 259.460938 117.089844 259.160156 C 118.25 258.863281 118.949219 257.683594 118.652344 256.527344 C 118.351562 255.363281 117.175781 254.664062 116.019531 254.964844 C 114.859375 255.257812 114.160156 256.441406 114.457031 257.597656 Z M 116.515625 264.691406 C 116.882812 265.828125 118.105469 266.449219 119.242188 266.082031 C 120.378906 265.710938 121.003906 264.492188 120.628906 263.351562 C 120.265625 262.214844 119.039062 261.59375 117.902344 261.960938 C 116.769531 262.332031 116.144531 263.554688 116.515625 264.691406 Z M 119.019531 271.648438 C 119.457031 272.761719 120.722656 273.304688 121.832031 272.863281 C 122.941406 272.421875 123.484375 271.164062 123.042969 270.054688 C 122.605469 268.941406 121.347656 268.394531 120.234375 268.839844 C 119.121094 269.28125 118.578125 270.539062 119.019531 271.648438 Z M 121.960938 278.429688 C 122.46875 279.511719 123.757812 279.976562 124.839844 279.46875 C 125.925781 278.957031 126.386719 277.664062 125.875 276.585938 C 125.367188 275.503906 124.074219 275.039062 122.992188 275.546875 C 121.910156 276.0625 121.449219 277.351562 121.960938 278.429688 Z M 125.320312 285.011719 C 125.894531 286.0625 127.214844 286.441406 128.257812 285.863281 C 129.304688 285.289062 129.691406 283.96875 129.109375 282.925781 C 128.535156 281.878906 127.214844 281.492188 126.171875 282.074219 C 125.125 282.648438 124.738281 283.964844 125.320312 285.011719 Z M 129.085938 291.371094 C 129.722656 292.378906 131.066406 292.679688 132.074219 292.035156 C 133.082031 291.394531 133.375 290.054688 132.738281 289.046875 C 132.097656 288.035156 130.761719 287.738281 129.75 288.382812 C 128.742188 289.023438 128.445312 290.359375 129.085938 291.371094 Z M 133.242188 297.472656 C 133.945312 298.445312 135.296875 298.660156 136.261719 297.953125 C 137.230469 297.25 137.445312 295.894531 136.742188 294.925781 C 136.035156 293.960938 134.683594 293.746094 133.714844 294.449219 C 132.75 295.15625 132.535156 296.507812 133.242188 297.480469 Z M 137.765625 303.304688 C 138.527344 304.230469 139.894531 304.355469 140.816406 303.59375 C 141.734375 302.832031 141.859375 301.46875 141.097656 300.546875 C 140.339844 299.625 138.972656 299.492188 138.054688 300.261719 C 137.128906 301.023438 137.007812 302.386719 137.765625 303.304688 Z M 142.648438 308.847656 C 143.464844 309.71875 144.835938 309.765625 145.703125 308.941406 C 146.578125 308.125 146.625 306.753906 145.804688 305.878906 C 144.984375 305.011719 143.613281 304.964844 142.746094 305.789062 C 141.871094 306.605469 141.832031 307.976562 142.648438 308.847656 Z M 147.863281 314.070312 C 148.730469 314.886719 150.101562 314.847656 150.917969 313.972656 C 151.742188 313.105469 151.695312 311.734375 150.828125 310.917969 C 149.953125 310.09375 148.585938 310.136719 147.769531 311.007812 C 146.949219 311.878906 146.988281 313.25 147.859375 314.070312 Z M 153.386719 318.953125 C 154.308594 319.722656 155.671875 319.589844 156.4375 318.671875 C 157.199219 317.753906 157.074219 316.386719 156.15625 315.621094 C 155.230469 314.859375 153.867188 314.988281 153.105469 315.90625 C 152.339844 316.828125 152.46875 318.191406 153.386719 318.953125 Z M 159.210938 323.488281 C 160.175781 324.195312 161.527344 323.980469 162.234375 323.015625 C 162.9375 322.046875 162.722656 320.691406 161.757812 319.988281 C 160.796875 319.28125 159.441406 319.496094 158.738281 320.460938 C 158.03125 321.429688 158.242188 322.785156 159.210938 323.488281 Z M 165.300781 327.648438 C 166.308594 328.289062 167.644531 327.996094 168.285156 326.988281 C 168.929688 325.976562 168.636719 324.640625 167.628906 323.992188 L 167.628906 323.996094 C 166.617188 323.355469 165.28125 323.648438 164.640625 324.65625 C 163.996094 325.667969 164.289062 327.003906 165.300781 327.648438 Z M 171.636719 331.414062 C 172.683594 331.996094 173.996094 331.617188 174.578125 330.570312 C 175.160156 329.519531 174.773438 328.207031 173.734375 327.625 C 172.683594 327.046875 171.363281 327.425781 170.789062 328.46875 C 170.210938 329.519531 170.585938 330.839844 171.636719 331.414062 Z M 178.195312 334.78125 C 179.273438 335.289062 180.566406 334.828125 181.078125 333.75 C 181.589844 332.667969 181.128906 331.375 180.046875 330.863281 L 180.046875 330.867188 C 178.964844 330.355469 177.679688 330.816406 177.164062 331.894531 C 176.652344 332.976562 177.113281 334.269531 178.195312 334.78125 Z M 184.949219 337.722656 C 186.0625 338.167969 187.316406 337.625 187.761719 336.507812 C 188.203125 335.402344 187.660156 334.140625 186.550781 333.699219 C 185.441406 333.253906 184.183594 333.796875 183.742188 334.90625 C 183.296875 336.019531 183.839844 337.28125 184.949219 337.722656 Z M 191.890625 340.238281 C 193.023438 340.609375 194.246094 339.988281 194.617188 338.847656 C 194.988281 337.710938 194.371094 336.492188 193.238281 336.121094 C 192.097656 335.746094 190.875 336.367188 190.503906 337.507812 C 190.132812 338.640625 190.75 339.863281 191.890625 340.238281 Z M 198.96875 342.308594 C 200.132812 342.605469 201.308594 341.90625 201.609375 340.75 C 201.90625 339.59375 201.207031 338.410156 200.050781 338.109375 C 198.898438 337.8125 197.710938 338.511719 197.414062 339.667969 C 197.117188 340.824219 197.8125 342.007812 198.96875 342.308594 Z M 206.175781 343.921875 C 207.347656 344.144531 208.480469 343.378906 208.707031 342.199219 C 208.929688 341.027344 208.160156 339.894531 206.984375 339.667969 C 205.8125 339.441406 204.675781 340.214844 204.449219 341.386719 C 204.230469 342.5625 204.996094 343.695312 206.175781 343.921875 Z M 213.457031 345.082031 C 214.648438 345.230469 215.730469 344.390625 215.875 343.203125 C 216.027344 342.015625 215.1875 340.929688 214.003906 340.785156 C 212.816406 340.632812 211.734375 341.472656 211.582031 342.65625 C 211.433594 343.847656 212.273438 344.929688 213.457031 345.082031 Z M 220.800781 345.777344 C 221.996094 345.855469 223.023438 344.945312 223.097656 343.75 C 223.175781 342.554688 222.269531 341.527344 221.074219 341.457031 C 219.882812 341.375 218.851562 342.285156 218.777344 343.480469 C 218.699219 344.671875 219.609375 345.703125 220.800781 345.777344 Z M 228.175781 346.011719 C 229.371094 346.011719 230.339844 345.046875 230.339844 343.847656 C 230.347656 342.65625 229.375 341.679688 228.179688 341.679688 C 226.988281 341.679688 226.015625 342.644531 226.011719 343.847656 C 226.011719 345.042969 226.980469 346.011719 228.175781 346.011719 Z M 235.550781 345.792969 C 236.738281 345.71875 237.644531 344.691406 237.574219 343.496094 C 237.503906 342.300781 236.472656 341.394531 235.285156 341.464844 C 234.089844 341.539062 233.183594 342.566406 233.253906 343.761719 C 233.328125 344.957031 234.355469 345.867188 235.550781 345.792969 Z M 242.894531 345.109375 C 244.078125 344.964844 244.917969 343.882812 244.773438 342.695312 C 244.625 341.507812 243.542969 340.664062 242.359375 340.8125 C 241.167969 340.960938 240.328125 342.042969 240.476562 343.226562 C 240.621094 344.417969 241.707031 345.257812 242.894531 345.109375 Z M 250.183594 343.972656 C 251.355469 343.746094 252.128906 342.613281 251.910156 341.4375 C 251.683594 340.265625 250.550781 339.492188 249.378906 339.710938 C 248.203125 339.933594 247.433594 341.066406 247.652344 342.246094 C 247.871094 343.417969 249.003906 344.191406 250.183594 343.972656 Z M 257.386719 342.371094 C 258.542969 342.070312 259.242188 340.890625 258.945312 339.734375 C 258.648438 338.574219 257.472656 337.875 256.3125 338.171875 C 255.15625 338.464844 254.457031 339.652344 254.75 340.808594 C 255.046875 341.964844 256.226562 342.667969 257.386719 342.371094 Z M 264.472656 340.316406 C 265.605469 339.949219 266.230469 338.726562 265.867188 337.585938 C 265.492188 336.445312 264.277344 335.824219 263.136719 336.191406 C 262 336.566406 261.378906 337.785156 261.746094 338.921875 C 262.117188 340.0625 263.335938 340.683594 264.472656 340.316406 Z M 271.429688 337.8125 C 272.539062 337.371094 273.082031 336.113281 272.640625 335.003906 C 272.203125 333.886719 270.945312 333.34375 269.835938 333.785156 C 268.722656 334.222656 268.175781 335.480469 268.617188 336.59375 C 269.054688 337.703125 270.3125 338.25 271.425781 337.8125 Z M 278.210938 334.871094 C 279.289062 334.363281 279.75 333.074219 279.242188 331.988281 C 278.734375 330.90625 277.445312 330.445312 276.363281 330.957031 C 275.28125 331.464844 274.816406 332.757812 275.324219 333.839844 C 275.839844 334.921875 277.128906 335.386719 278.210938 334.871094 Z M 284.789062 331.515625 C 285.832031 330.941406 286.214844 329.621094 285.640625 328.570312 C 285.058594 327.523438 283.746094 327.144531 282.699219 327.71875 C 281.648438 328.296875 281.273438 329.617188 281.847656 330.664062 C 282.421875 331.714844 283.742188 332.089844 284.785156 331.515625 Z M 291.144531 327.753906 C 292.152344 327.109375 292.449219 325.769531 291.808594 324.757812 C 291.164062 323.75 289.828125 323.449219 288.820312 324.09375 C 287.8125 324.734375 287.511719 326.074219 288.15625 327.082031 C 288.792969 328.09375 290.128906 328.390625 291.144531 327.753906 Z M 297.242188 323.597656 C 298.210938 322.890625 298.425781 321.539062 297.722656 320.574219 C 297.023438 319.601562 295.664062 319.386719 294.699219 320.09375 C 293.730469 320.792969 293.515625 322.152344 294.21875 323.117188 C 294.925781 324.085938 296.277344 324.300781 297.242188 323.597656 Z M 303.078125 319.074219 C 303.996094 318.304688 304.125 316.941406 303.363281 316.019531 C 302.601562 315.097656 301.238281 314.964844 300.3125 315.734375 L 300.320312 315.734375 C 299.394531 316.496094 299.265625 317.859375 300.027344 318.78125 C 300.789062 319.703125 302.152344 319.835938 303.078125 319.074219 Z M 308.613281 314.1875 C 309.484375 313.371094 309.53125 312 308.714844 311.128906 C 307.894531 310.257812 306.527344 310.210938 305.652344 311.027344 C 304.777344 311.847656 304.734375 313.21875 305.558594 314.09375 C 306.367188 314.964844 307.746094 315.003906 308.613281 314.1875 Z M 313.839844 308.976562 C 314.65625 308.101562 314.617188 306.730469 313.742188 305.914062 C 312.875 305.09375 311.503906 305.132812 310.679688 306.003906 C 309.863281 306.878906 309.902344 308.246094 310.777344 309.066406 C 311.644531 309.890625 313.015625 309.84375 313.839844 308.976562 Z M 318.726562 303.449219 C 319.484375 302.527344 319.355469 301.15625 318.4375 300.394531 C 317.519531 299.628906 316.15625 299.757812 315.386719 300.679688 L 315.394531 300.679688 C 314.628906 301.597656 314.757812 302.960938 315.675781 303.730469 C 316.59375 304.492188 317.957031 304.367188 318.71875 303.449219 Z M 323.257812 297.625 C 323.960938 296.65625 323.746094 295.300781 322.785156 294.597656 C 321.8125 293.890625 320.460938 294.105469 319.757812 295.070312 C 319.050781 296.035156 319.265625 297.390625 320.230469 298.09375 C 321.195312 298.800781 322.546875 298.589844 323.257812 297.625 Z M 327.414062 291.535156 C 328.054688 290.523438 327.761719 289.1875 326.753906 288.539062 C 325.75 287.894531 324.40625 288.195312 323.765625 289.199219 C 323.121094 290.207031 323.414062 291.550781 324.425781 292.195312 C 325.433594 292.835938 326.769531 292.539062 327.414062 291.535156 Z M 331.183594 285.195312 C 331.765625 284.144531 331.386719 282.832031 330.335938 282.25 C 329.296875 281.667969 327.976562 282.046875 327.394531 283.09375 C 326.816406 284.144531 327.199219 285.460938 328.242188 286.039062 C 329.289062 286.621094 330.601562 286.238281 331.183594 285.195312 Z M 334.546875 278.632812 C 335.0625 277.550781 334.597656 276.257812 333.523438 275.746094 C 332.441406 275.230469 331.148438 275.695312 330.636719 276.777344 C 330.125 277.855469 330.585938 279.148438 331.667969 279.660156 C 332.746094 280.171875 334.035156 279.710938 334.546875 278.632812 Z M 337.492188 271.871094 C 337.9375 270.765625 337.394531 269.5 336.285156 269.054688 C 335.175781 268.617188 333.917969 269.15625 333.472656 270.269531 C 333.03125 271.378906 333.574219 272.636719 334.683594 273.082031 C 335.789062 273.523438 337.050781 272.980469 337.492188 271.871094 Z M 340.011719 264.933594 C 340.382812 263.792969 339.761719 262.574219 338.625 262.195312 C 337.492188 261.824219 336.269531 262.445312 335.894531 263.582031 C 335.523438 264.722656 336.144531 265.949219 337.277344 266.320312 C 338.414062 266.6875 339.640625 266.070312 340.011719 264.933594 Z M 342.078125 257.847656 C 342.378906 256.683594 341.683594 255.507812 340.523438 255.207031 C 339.367188 254.910156 338.183594 255.601562 337.886719 256.765625 L 337.890625 256.757812 C 337.585938 257.921875 338.285156 259.097656 339.441406 259.398438 C 340.597656 259.699219 341.78125 259.003906 342.078125 257.847656 Z M 343.699219 250.644531 C 343.921875 249.464844 343.15625 248.332031 341.984375 248.105469 C 340.804688 247.878906 339.671875 248.652344 339.449219 249.824219 C 339.222656 251 339.988281 252.132812 341.167969 252.359375 C 342.339844 252.585938 343.472656 251.816406 343.699219 250.644531 Z M 344.859375 243.351562 C 345.011719 242.164062 344.171875 241.078125 342.988281 240.929688 C 341.796875 240.777344 340.714844 241.617188 340.5625 242.804688 L 340.570312 242.804688 C 340.417969 243.992188 341.25 245.078125 342.441406 245.230469 C 343.625 245.375 344.707031 244.539062 344.859375 243.351562 Z M 345.5625 236.003906 C 345.636719 234.808594 344.730469 233.777344 343.539062 233.703125 C 342.34375 233.625 341.3125 234.535156 341.238281 235.730469 C 341.167969 236.917969 342.070312 237.953125 343.265625 238.023438 C 344.453125 238.105469 345.484375 237.195312 345.558594 236.003906 Z M 345.800781 228.621094 C 345.800781 227.425781 344.835938 226.457031 343.640625 226.457031 C 342.445312 226.449219 341.472656 227.421875 341.472656 228.617188 C 341.472656 229.8125 342.433594 230.78125 343.636719 230.789062 C 344.832031 230.789062 345.800781 229.816406 345.800781 228.621094 Z M 345.585938 221.25 C 345.511719 220.054688 344.488281 219.144531 343.292969 219.21875 C 342.097656 219.285156 341.1875 220.3125 341.261719 221.507812 C 341.335938 222.703125 342.363281 223.613281 343.558594 223.539062 C 344.746094 223.472656 345.660156 222.441406 345.585938 221.25 Z M 344.910156 213.898438 C 344.761719 212.710938 343.679688 211.867188 342.492188 212.015625 C 341.308594 212.160156 340.460938 213.246094 340.609375 214.429688 C 340.753906 215.613281 341.835938 216.460938 343.027344 216.3125 C 344.210938 216.167969 345.054688 215.085938 344.910156 213.898438 Z M 343.769531 206.601562 C 343.546875 205.425781 342.417969 204.652344 341.238281 204.875 C 340.066406 205.101562 339.296875 206.226562 339.515625 207.40625 C 339.734375 208.582031 340.867188 209.351562 342.046875 209.132812 C 343.21875 208.914062 343.992188 207.777344 343.769531 206.601562 Z M 342.175781 199.398438 C 341.878906 198.234375 340.699219 197.535156 339.542969 197.828125 C 338.382812 198.128906 337.683594 199.304688 337.980469 200.464844 C 338.273438 201.625 339.453125 202.324219 340.613281 202.027344 C 341.769531 201.730469 342.46875 200.554688 342.175781 199.398438 Z M 340.125 192.300781 C 339.757812 191.160156 338.535156 190.535156 337.402344 190.90625 C 336.261719 191.273438 335.636719 192.5 336.003906 193.636719 C 336.375 194.769531 337.59375 195.398438 338.730469 195.03125 C 339.871094 194.660156 340.496094 193.441406 340.125 192.300781 Z M 337.625 185.339844 C 337.1875 184.230469 335.929688 183.679688 334.820312 184.121094 C 333.707031 184.5625 333.160156 185.820312 333.601562 186.929688 C 334.042969 188.046875 335.296875 188.589844 336.410156 188.148438 C 337.519531 187.710938 338.066406 186.449219 337.625 185.339844 Z M 334.695312 178.554688 C 334.1875 177.472656 332.898438 177.007812 331.816406 177.515625 C 330.730469 178.023438 330.269531 179.316406 330.777344 180.398438 C 331.285156 181.480469 332.574219 181.945312 333.65625 181.4375 C 334.742188 180.929688 335.203125 179.636719 334.695312 178.554688 Z M 331.339844 171.972656 C 330.765625 170.921875 329.453125 170.539062 328.402344 171.113281 C 327.355469 171.6875 326.972656 173.007812 327.546875 174.050781 C 328.121094 175.101562 329.441406 175.484375 330.488281 174.910156 C 331.539062 174.335938 331.917969 173.015625 331.339844 171.972656 Z M 327.582031 165.609375 C 326.945312 164.597656 325.601562 164.300781 324.59375 164.941406 C 323.585938 165.582031 323.285156 166.917969 323.929688 167.933594 C 324.570312 168.9375 325.90625 169.242188 326.917969 168.597656 C 327.925781 167.953125 328.222656 166.617188 327.582031 165.609375 Z M 323.433594 159.5 C 322.734375 158.527344 321.378906 158.316406 320.410156 159.019531 C 319.445312 159.71875 319.226562 161.078125 319.933594 162.042969 C 320.628906 163.011719 321.988281 163.226562 322.953125 162.523438 C 323.921875 161.824219 324.136719 160.464844 323.4375 159.5 Z M 318.917969 153.660156 C 318.148438 152.734375 316.785156 152.605469 315.867188 153.367188 C 314.941406 154.128906 314.8125 155.5 315.574219 156.417969 C 316.335938 157.34375 317.699219 157.472656 318.625 156.707031 C 319.542969 155.945312 319.671875 154.582031 318.910156 153.660156 Z M 314.039062 148.117188 C 313.222656 147.242188 311.855469 147.195312 310.980469 148.019531 C 310.105469 148.832031 310.0625 150.203125 310.878906 151.078125 C 311.695312 151.953125 313.066406 151.996094 313.9375 151.179688 C 314.8125 150.359375 314.859375 148.992188 314.039062 148.117188 Z M 308.832031 142.886719 C 307.957031 142.070312 306.589844 142.109375 305.769531 142.976562 C 304.949219 143.851562 304.992188 145.222656 305.863281 146.039062 C 306.730469 146.863281 308.097656 146.824219 308.921875 145.949219 C 309.738281 145.082031 309.699219 143.710938 308.832031 142.886719 Z M 303.308594 137.996094 C 302.390625 137.230469 301.023438 137.359375 300.257812 138.277344 C 299.496094 139.199219 299.621094 140.5625 300.539062 141.324219 C 301.457031 142.089844 302.824219 141.96875 303.589844 141.046875 C 304.355469 140.128906 304.226562 138.761719 303.308594 137.996094 Z M 297.496094 133.460938 C 296.527344 132.75 295.171875 132.960938 294.46875 133.929688 C 293.765625 134.894531 293.972656 136.246094 294.9375 136.953125 C 295.902344 137.664062 297.257812 137.449219 297.964844 136.484375 C 298.667969 135.519531 298.460938 134.160156 297.488281 133.460938 Z M 291.40625 129.292969 C 290.398438 128.648438 289.0625 128.941406 288.421875 129.953125 C 287.773438 130.957031 288.070312 132.300781 289.074219 132.941406 C 290.082031 133.585938 291.425781 133.292969 292.066406 132.28125 C 292.710938 131.273438 292.410156 129.9375 291.40625 129.292969 Z M 285.078125 125.519531 C 284.027344 124.9375 282.710938 125.316406 282.128906 126.359375 C 281.554688 127.410156 281.933594 128.722656 282.972656 129.304688 C 284.023438 129.886719 285.335938 129.507812 285.917969 128.464844 C 286.496094 127.414062 286.121094 126.09375 285.078125 125.519531 Z M 278.519531 122.144531 C 277.4375 121.632812 276.148438 122.09375 275.636719 123.171875 C 275.121094 124.253906 275.585938 125.546875 276.660156 126.058594 C 277.742188 126.574219 279.035156 126.109375 279.546875 125.035156 C 280.058594 123.949219 279.597656 122.660156 278.519531 122.144531 Z M 271.769531 119.195312 C 270.65625 118.75 269.394531 119.292969 268.953125 120.402344 C 268.507812 121.515625 269.050781 122.773438 270.160156 123.21875 C 271.273438 123.664062 272.527344 123.121094 272.972656 122.011719 C 273.414062 120.898438 272.878906 119.640625 271.769531 119.195312 Z M 264.828125 116.675781 C 263.695312 116.300781 262.472656 116.921875 262.101562 118.054688 C 261.726562 119.195312 262.347656 120.417969 263.480469 120.792969 C 264.621094 121.164062 265.835938 120.542969 266.214844 119.410156 C 266.585938 118.269531 265.96875 117.046875 264.828125 116.675781 Z M 257.75 114.597656 C 256.59375 114.300781 255.410156 114.992188 255.109375 116.148438 C 254.8125 117.3125 255.503906 118.492188 256.667969 118.789062 C 257.820312 119.09375 259 118.394531 259.304688 117.238281 C 259.601562 116.082031 258.910156 114.898438 257.75 114.597656 Z M 250.550781 112.972656 C 249.378906 112.75 248.246094 113.515625 248.019531 114.695312 C 247.792969 115.867188 248.558594 117 249.730469 117.226562 C 250.90625 117.453125 252.042969 116.683594 252.269531 115.511719 C 252.496094 114.332031 251.726562 113.199219 250.554688 112.972656 Z M 243.265625 111.804688 C 242.082031 111.652344 240.996094 112.496094 240.84375 113.683594 C 240.695312 114.867188 241.53125 115.953125 242.71875 116.105469 C 243.902344 116.257812 244.984375 115.417969 245.136719 114.230469 C 245.289062 113.042969 244.449219 111.957031 243.265625 111.804688 Z M 235.925781 111.101562 C 234.730469 111.027344 233.699219 111.929688 233.621094 113.125 C 233.546875 114.320312 234.449219 115.347656 235.644531 115.425781 C 236.839844 115.5 237.867188 114.597656 237.945312 113.402344 C 238.019531 112.210938 237.117188 111.179688 235.921875 111.101562 Z M 228.554688 110.859375 C 227.351562 110.859375 226.382812 111.824219 226.382812 113.019531 C 226.378906 114.214844 227.347656 115.191406 228.542969 115.191406 C 229.738281 115.191406 230.707031 114.226562 230.710938 113.03125 C 230.710938 111.835938 229.742188 110.859375 228.546875 110.859375 Z M 228.304688 110.859375 C 227.105469 110.859375 226.136719 111.828125 226.136719 113.023438 C 226.136719 114.21875 227.105469 115.191406 228.304688 115.191406 C 229.5 115.191406 230.46875 114.21875 230.46875 113.023438 C 230.46875 111.828125 229.5 110.859375 228.304688 110.859375 " fill-opacity="1" fill-rule="nonzero"/></g><path fill="#b49d85" d="M 228.300781 277.890625 C 201.011719 277.890625 178.878906 255.753906 178.878906 228.441406 C 178.878906 201.128906 201.011719 178.984375 228.300781 178.984375 C 255.589844 178.984375 277.722656 201.128906 277.722656 228.441406 C 277.722656 255.753906 255.589844 277.890625 228.300781 277.890625 Z M 228.304688 160.648438 C 190.890625 160.648438 160.558594 191.003906 160.558594 228.441406 C 160.558594 265.875 190.890625 296.226562 228.304688 296.226562 C 265.714844 296.226562 296.042969 265.875 296.042969 228.441406 C 296.042969 191.003906 265.714844 160.648438 228.304688 160.648438 " fill-opacity="1" fill-rule="nonzero"/><path fill="#b49d85" d="M 228.300781 244.824219 C 219.257812 244.824219 211.925781 237.488281 211.925781 228.441406 C 211.925781 219.386719 219.257812 212.054688 228.300781 212.054688 C 237.335938 212.054688 244.675781 219.386719 244.675781 228.441406 C 244.675781 237.488281 237.335938 244.824219 228.300781 244.824219 " fill-opacity="1" fill-rule="nonzero"/><path fill="#b49d85" d="M 83.964844 158.019531 C 83.964844 164.101562 79.039062 169.03125 72.964844 169.03125 L 50.347656 169.03125 C 44.269531 169.03125 39.34375 164.101562 39.34375 158.019531 L 39.34375 135.390625 C 39.34375 129.308594 44.269531 124.378906 50.347656 124.378906 L 72.964844 124.378906 C 79.039062 124.378906 83.964844 129.308594 83.964844 135.390625 L 83.964844 158.019531 " fill-opacity="1" fill-rule="nonzero"/><path fill="#b49d85" d="M 276.152344 88.53125 C 276.152344 91.523438 273.722656 93.953125 270.738281 93.953125 L 177.761719 93.953125 C 174.773438 93.953125 172.351562 91.523438 172.351562 88.53125 C 172.351562 85.535156 174.773438 83.109375 177.761719 83.109375 L 270.738281 83.109375 C 273.722656 83.109375 276.152344 85.535156 276.152344 88.53125 " fill-opacity="1" fill-rule="nonzero"/></svg>